<svg width="300" height="301" viewBox="0 0 300 301" fill="none" xmlns="http://www.w3.org/2000/svg">
<g clip-path="url(#clip0_179_2)">
<mask id="mask0_179_2" style="mask-type:luminance" maskUnits="userSpaceOnUse" x="-137" y="-125" width="1144" height="559">
<path d="M-136.954 -124.671H1006.4V433.605H-136.954V-124.671Z" fill="white"/>
</mask>
<g mask="url(#mask0_179_2)">
<path d="M282.553 299.002C291.635 299.002 299 291.637 299 282.555V17.4476C299 8.36226 291.635 0.999725 282.553 0.999725H17.4468C8.36142 0.999725 1 8.36226 1 17.4476V282.555C1 291.637 8.36142 299.002 17.4468 299.002H282.553Z" fill="#A2A2A4"/>
<path d="M206.615 299.002V183.601H245.351L251.151 138.626H206.615V109.912C206.615 96.8903 210.23 88.0171 228.903 88.0171L252.719 88.0059V47.781C248.599 47.2339 234.463 46.0091 218.016 46.0091C183.678 46.0091 160.172 66.9679 160.172 105.459V138.626H121.337V183.601H160.172V299.002H206.615Z" fill="#C2C2C2"/>
</g>
</g>
<defs>
<clipPath id="clip0_179_2">
<rect width="300" height="300.002" fill="white"/>
</clipPath>
</defs>
</svg>
