<svg width="512" height="512" viewBox="0 0 512 512" fill="none" xmlns="http://www.w3.org/2000/svg">
<path d="M256 49.4711C323.266 49.4711 331.233 49.7281 357.8 50.9401C382.362 52.0611 395.7 56.1641 404.578 59.6141C415.52 63.6526 425.418 70.0921 433.544 78.4591C441.911 86.5851 448.351 96.483 452.389 107.425C455.839 116.302 459.943 129.641 461.063 154.203C462.275 180.768 462.532 188.735 462.532 256.003C462.532 323.271 462.275 331.236 461.063 357.803C459.942 382.365 455.838 395.703 452.389 404.581C448.198 415.446 441.779 425.313 433.544 433.547C425.31 441.782 415.443 448.201 404.578 452.392C395.701 455.842 382.362 459.946 357.8 461.066C331.24 462.278 323.273 462.535 256 462.535C188.727 462.535 180.763 462.278 154.2 461.066C129.638 459.945 116.3 455.841 107.422 452.392C96.48 448.354 86.5821 441.914 78.4561 433.547C70.0891 425.421 63.6497 415.523 59.6111 404.581C56.1611 395.704 52.0571 382.365 50.9371 357.803C49.7251 331.239 49.4681 323.271 49.4681 256.003C49.4681 188.735 49.7251 180.77 50.9371 154.203C52.0581 129.641 56.1611 116.303 59.6111 107.425C63.6501 96.4825 70.0902 86.5842 78.4581 78.4581C86.5841 70.0911 96.482 63.6517 107.424 59.6131C116.301 56.1631 129.64 52.0591 154.202 50.9391C180.767 49.7271 188.734 49.4701 256.002 49.4701M256.002 4.0791C187.584 4.0791 179.002 4.3691 152.136 5.5951C125.321 6.8191 107.009 11.0771 90.9851 17.3051C74.1757 23.6307 58.9484 33.5469 46.3651 46.3621C33.547 58.9446 23.6281 74.172 17.3001 90.9821C11.0771 107.007 6.8191 125.319 5.6001 152.134C4.3691 179 4.0791 187.582 4.0791 256C4.0791 324.418 4.3691 333 5.6001 359.866C6.8241 386.681 11.0821 404.993 17.3101 421.017C23.6358 437.826 33.5519 453.054 46.3671 465.637C58.9504 478.452 74.1777 488.369 90.9871 494.694C107.012 500.922 125.324 505.18 152.138 506.404C179.008 507.63 187.587 507.92 256.004 507.92C324.421 507.92 333.004 507.63 359.87 506.404C386.685 505.18 404.997 500.922 421.021 494.694C437.756 488.222 452.954 478.325 465.641 465.637C478.329 452.95 488.226 437.752 494.698 421.017C500.926 404.992 505.184 386.68 506.408 359.866C507.634 332.996 507.924 324.417 507.924 256C507.924 187.583 507.634 179 506.408 152.134C505.184 125.319 500.926 107.007 494.698 90.9831C488.373 74.1737 478.456 58.9464 465.641 46.3631C453.058 33.5453 437.829 23.6271 421.018 17.3001C404.993 11.0771 386.681 6.8191 359.866 5.6001C333 4.3691 324.418 4.0791 256 4.0791H256.002Z" fill="#A2A2A4"/>
<path d="M256 126.635C230.414 126.635 205.402 134.222 184.128 148.437C162.855 162.652 146.273 182.856 136.482 206.494C126.691 230.132 124.129 256.143 129.121 281.238C134.112 306.332 146.433 329.383 164.525 347.475C182.617 365.567 205.668 377.887 230.762 382.879C255.856 387.871 281.867 385.309 305.506 375.517C329.144 365.726 349.348 349.145 363.563 327.871C377.778 306.597 385.365 281.586 385.365 256C385.365 221.69 371.735 188.786 347.475 164.525C323.214 140.264 290.31 126.635 256 126.635ZM256 339.973C239.392 339.973 223.156 335.047 209.347 325.82C195.538 316.593 184.775 303.478 178.42 288.134C172.064 272.79 170.401 255.906 173.641 239.617C176.882 223.328 184.879 208.365 196.623 196.622C208.367 184.878 223.33 176.88 239.619 173.64C255.908 170.4 272.792 172.063 288.136 178.419C303.48 184.775 316.595 195.538 325.822 209.347C335.049 223.156 339.974 239.392 339.974 256C339.974 278.271 331.126 299.63 315.378 315.378C299.63 331.126 278.271 339.973 256 339.973Z" fill="#A2A2A4"/>
<path d="M390.476 151.754C407.172 151.754 420.706 138.22 420.706 121.524C420.706 104.828 407.172 91.2939 390.476 91.2939C373.781 91.2939 360.246 104.828 360.246 121.524C360.246 138.22 373.781 151.754 390.476 151.754Z" fill="#A2A2A4"/>
</svg>
